<svg viewBox="0 0 400 400" xmlns="http://www.w3.org/2000/svg">
  <defs>
    <linearGradient id="grad" x1="0%" y1="0%" x2="100%" y2="100%">
      <stop offset="0%" style="stop-color:#2ecc71;stop-opacity:1" />
      <stop offset="100%" style="stop-color:#27ae60;stop-opacity:1" />
    </linearGradient>
  </defs>
  
  <rect width="400" height="400" fill="white"/>
  
  <circle cx="200" cy="200" r="150" fill="url(#grad)"/>
  
  <path d="M 185 140 L 185 170 Q 185 185 200 185 Q 215 185 215 170 L 215 140 Q 215 132 207 132 L 193 132 Q 185 132 185 140 Z" fill="white"/>
  <ellipse cx="200" cy="137" rx="13" ry="6" fill="white"/>
  <rect x="191" y="129" width="18" height="9" fill="white"/>
  
  <path d="M 165 210 
           C 165 210, 157 218, 161 230
           C 165 242, 173 240, 173 230
           C 173 220, 165 220, 165 210 Z" 
        fill="none" stroke="white" stroke-width="6" stroke-linecap="round"/>
  
  <path d="M 177 225 L 189 237" stroke="white" stroke-width="5" stroke-linecap="round"/>
  <path d="M 165 238 L 157 230" stroke="white" stroke-width="5" stroke-linecap="round"/>
  <path d="M 171 210 L 171 200" stroke="white" stroke-width="5" stroke-linecap="round"/>
  
  <circle cx="210" cy="220" r="10" fill="#3498db"/>
  <circle cx="230" cy="220" r="10" fill="#e74c3c"/>
  <circle cx="220" cy="237" r="10" fill="#f39c12"/>
  
  <text x="200" y="275" font-family="Arial, sans-serif" font-size="32" font-weight="bold" fill="white" text-anchor="middle">BeadCycle</text>
</svg>